HIERARCHY
ROOT Hips
{
  OFFSET -69.4423 88.0299 51.6846
  CHANNELS 6 Xposition Yposition Zposition Zrotation Xrotation Yrotation
  JOINT Spine
  {
    OFFSET 12.0259 -0.162853 1.93176e-005
    CHANNELS 3 Zrotation Xrotation Yrotation
    JOINT Spine1
    {
      OFFSET 15.3169 -0.0121909 0
      CHANNELS 3 Zrotation Xrotation Yrotation
      JOINT Spine2
      {
        OFFSET 15.3176 -0.0121922 0
        CHANNELS 3 Zrotation Xrotation Yrotation
        JOINT Neck
        {
          OFFSET 19.9142 1.56236 0
          CHANNELS 3 Zrotation Xrotation Yrotation
          JOINT Head
          {
            OFFSET 6.92646 0 0
            CHANNELS 3 Zrotation Xrotation Yrotation
            End Site
            {
              OFFSET 20.7666 0 0
            }
          }
          JOINT LeftShoulder
          {
            OFFSET -4.94072 -1.14703 8.14416
            CHANNELS 3 Zrotation Xrotation Yrotation
            JOINT LeftArm
            {
              OFFSET 14.108 0 -2.74767e-005
              CHANNELS 3 Zrotation Xrotation Yrotation
              JOINT LeftForeArm
              {
                OFFSET 28.5802 -0.0783412 -0.0284884
                CHANNELS 3 Zrotation Xrotation Yrotation
                JOINT LeftHand
                {
                  OFFSET 27.092 0 0
                  CHANNELS 3 Zrotation Xrotation Yrotation
                  End Site
                  {
                    OFFSET 9.55928 -0.186424 0.145352
                  }
                }
              }
            }
          }
          JOINT RightShoulder
          {
            OFFSET -7.15748 -1.33027 -6.24935
            CHANNELS 3 Zrotation Xrotation Yrotation
            JOINT RightArm
            {
              OFFSET 14.108 0 1.82997e-005
              CHANNELS 3 Zrotation Xrotation Yrotation
              JOINT RightForeArm
              {
                OFFSET 28.5802 -0.0707221 2.30684e-005
                CHANNELS 3 Zrotation Xrotation Yrotation
                JOINT RightHand
                {
                  OFFSET 27.092 0 -1.30073e-005
                  CHANNELS 3 Zrotation Xrotation Yrotation
                  End Site
                  {
                    OFFSET 9.55929 -0.186417 -0.145354
                  }
                }
              }
            }
          }
        }
      }
    }
  }
  JOINT LeftUpLeg
  {
    OFFSET 0.00499725 -0.534999 8.837
    CHANNELS 3 Zrotation Xrotation Yrotation
    JOINT LeftLeg
    {
      OFFSET 39.9035 -0.00124594 0.000252775
      CHANNELS 3 Zrotation Xrotation Yrotation
      JOINT LeftFoot
      {
        OFFSET 39.6689 0 0
        CHANNELS 3 Zrotation Xrotation Yrotation
        JOINT LeftToe
        {
          OFFSET 10.1624 13.6296 0
          CHANNELS 3 Zrotation Xrotation Yrotation
          End Site
          {
            OFFSET 8.38147 0 0
          }
        }
      }
    }
  }
  JOINT RightUpLeg
  {
    OFFSET 0.00499725 -0.535 -8.837
    CHANNELS 3 Zrotation Xrotation Yrotation
    JOINT RightLeg
    {
      OFFSET 39.9036 -0.000268477 0.000106433
      CHANNELS 3 Zrotation Xrotation Yrotation
      JOINT RightFoot
      {
        OFFSET 39.6689 1.17892e-005 0
        CHANNELS 3 Zrotation Xrotation Yrotation
        JOINT RightToe
        {
          OFFSET 10.1624 13.6296 0
          CHANNELS 3 Zrotation Xrotation Yrotation
          End Site
          {
            OFFSET 8.38147 0 0
          }
        }
      }
    }
  }
}
MOTION
Frames:	18
Frame Time:	0.0333333
0.537616 89.1075 -2.9564 -56.1676 -88.8156 -146.963 0.786103 0.348139 0.218943 1.57094 0.699723 0.433274 1.57093 0.69971 0.433259 -19.3694 -0.742357 -13.2986 47.3802 -0.22259 15.107 -162.817 -4.51781 -96.2985 -19.6016 7.42648 87.7305 -24.6756 2.99677 -15.8657 12.2666 -86.3166 14.1984 -162.527 -5.78512 72.4141 -16.3388 -4.30664 -87.04 -23.0798 -3.01514 14.5884 1.94563 81.69 -1.83387 0.728093 -1.28252 -179.976 -13.6713 1.00171 -0.95809 3.70548 -2.44316 -0.028156 90 -9.49197e-015 -4.96962e-016 -4.96893 -1.37201 -176.594 -25.1743 -0.532183 -0.290762 7.22551 0.128619 -0.365873 90 4.72114e-015 -7.35503e-015 
0.632471 89.0799 -2.91295 -51.6157 -88.8786 -142.27 0.798374 0.27831 0.192757 1.59595 0.559718 0.374168 1.59594 0.559707 0.374163 -19.3196 -0.719577 -13.3672 47.4457 -0.132375 15.2119 -162.865 -4.51007 -96.3749 -19.3141 7.42058 87.6249 -24.6025 2.99364 -15.827 11.9506 -86.2433 13.8807 -162.577 -5.77824 72.3382 -16.8902 -4.39043 -87.1075 -23.1084 -3.02084 14.6095 2.0251 82.0081 -1.91265 0.665106 -1.43014 179.959 -13.7749 1.00187 -0.958703 3.74234 -2.50005 -0.0274126 90 7.59109e-015 3.27995e-015 -4.97232 -1.39168 -176.638 -25.2489 -0.532817 -0.292112 7.33384 0.219238 -0.370729 90 2.83268e-015 -1.98785e-015 
0.835007 89.0992 -2.90931 -46.0735 -88.7132 -136.934 0.855319 0.289038 0.202389 1.70964 0.581614 0.409668 1.70963 0.581606 0.40965 -18.9652 -0.721108 -13.1531 46.9652 -0.208124 14.9128 -163.193 -4.35644 -96.1961 -18.9628 7.45831 87.4421 -24.6358 2.99903 -15.8401 10.5722 -85.8666 12.4822 -162.902 -5.63034 72.5063 -16.8681 -4.07184 -87.3492 -23.0067 -2.99617 14.5553 1.948 81.6506 -1.83352 0.660103 -1.49292 -179.734 -14.1182 1.002 -0.958446 3.84866 -2.59472 -0.0196873 90 1.86485e-014 -1.66979e-014 -4.72093 -1.24945 -176.258 -25.0777 -0.534647 -0.293191 7.07575 0.342839 -0.356865 90 1.78906e-015 6.16232e-015 
1.0224 89.0877 -2.79427 -52.3181 -88.7563 -143.192 0.863314 0.334571 0.199647 1.72554 0.672591 0.39442 1.72553 0.672585 0.394403 -18.8643 -0.773041 -13.4397 46.8237 -0.0697809 15.3668 -163.324 -4.48184 -96.465 -18.5927 7.33897 87.2737 -24.7464 3.02232 -15.8977 8.293 -85.03 10.2097 -163.037 -5.7762 72.2425 -17.2675 -4.02593 -87.414 -23.0146 -2.99502 14.5546 1.9677 81.7451 -1.85177 0.246825 -1.74719 -179.636 -14.5846 1.0019 -0.956461 4.00438 -2.87696 -0.00273591 90 -4.42296e-015 6.36111e-015 -4.86401 -1.02518 -176.053 -24.9142 -0.537216 -0.293827 6.8702 0.554912 -0.342623 90 -8.69683e-015 -4.37326e-015 
1.18511 89.0927 -2.72521 -46.1805 -88.8667 -137.379 0.90335 0.385914 0.2625 1.80498 0.776387 0.519063 1.80497 0.776382 0.519051 -19.1733 -0.807088 -13.443 47.292 -0.336179 15.2103 -163.026 -4.56054 -96.4332 -18.8719 7.1475 87.1609 -24.7166 3.02006 -15.8881 9.55944 -85.5764 11.4746 -162.746 -5.87305 72.2788 -17.4815 -4.02052 -87.5401 -23.2296 -3.04219 14.6658 1.86838 81.3261 -1.75475 -0.0773729 -2.13057 -179.255 -15.2608 1.00142 -0.954254 4.2539 -3.15983 0.0189664 90 3.97569e-016 8.74653e-015 -4.71775 -1.11364 -175.562 -24.5212 -0.538262 -0.29385 6.56055 0.809221 -0.32085 90 2.1916e-014 -8.15017e-015 
1.24423 89.1346 -2.55323 -22.837 -89.2601 -113.841 0.886761 0.392832 0.249219 1.77192 0.78996 0.492508 1.77192 0.789947 0.492501 -18.6907 -0.783029 -13.5511 46.898 -0.304634 15.1125 -163.5 -4.45686 -96.5879 -19.2952 7.14861 87.2634 -24.8262 3.03557 -15.9511 10.0734 -85.7824 11.9777 -163.227 -5.78773 72.1339 -17.9046 -4.10257 -87.6402 -23.1521 -3.0289 14.6376 1.87158 81.4702 -1.76904 -0.377147 -2.58965 -179.392 -15.2743 1.00038 -0.953876 4.0622 -3.11739 0.0057908 90 -1.2921e-015 5.06901e-015 -5.16237 -1.40721 -175.644 -24.9982 -0.542586 -0.293091 6.50435 1.27602 -0.311246 90 1.02871e-014 5.96354e-016 
1.4542 89.12 -2.34805 24.2858 -89.4627 -67.5607 0.869235 0.522262 0.43879 1.73458 1.05159 0.869806 1.73456 1.05159 0.869791 -18.9411 -0.740708 -13.4116 47.4239 -0.48484 14.7545 -163.231 -4.40166 -96.4646 -20.0313 7.04367 87.2267 -25.0175 3.06556 -16.058 9.86787 -85.841 11.7649 -162.971 -5.75848 72.2836 -18.177 -4.24306 -87.7685 -23.1806 -3.02976 14.6516 1.82185 81.3342 -1.7188 -1.87153 -3.21836 -178.558 -17.312 0.996868 -0.930542 4.41319 -3.33963 0.0381701 90 1.06226e-014 7.50412e-015 -5.12045 -2.22654 -174.693 -24.5136 -0.557163 -0.291379 6.31437 1.28625 -0.304818 90 7.45443e-015 1.59028e-015 
1.49995 89.1074 -2.06166 72.1179 -88.5945 -20.1082 0.946637 0.622049 0.584573 1.88709 1.25413 1.15905 1.88709 1.25412 1.15904 -19.3432 -0.71306 -13.7719 47.5751 -0.520634 14.7653 -162.857 -4.55253 -96.7953 -20.9827 6.4914 87.4078 -25.4658 3.15506 -16.3157 10.1846 -85.9445 12.1002 -162.608 -5.96776 71.9772 -18.8807 -4.17485 -87.478 -23.0247 -2.99054 14.5636 1.87604 81.6542 -1.75151 -3.16721 -4.08261 -178.231 -19.0097 0.991091 -0.897708 4.55779 -3.04729 0.0429892 90 3.88873e-015 3.8266e-015 -5.09657 -3.48107 -174.326 -24.2724 -0.562555 -0.288544 6.21759 1.45671 -0.298351 90 -4.96962e-015 -1.59028e-015 
1.46735 89.1653 -1.68671 89.5867 -87.2573 -2.67395 0.999666 0.733547 0.660353 1.99106 1.47893 1.30813 1.99106 1.47893 1.30813 -19.4206 -0.700097 -13.7704 46.8898 -0.504771 14.5357 -162.775 -4.53013 -96.8115 -21.8824 5.85617 87.5376 -26.1274 3.2852 -16.6829 9.27528 -85.8539 11.1937 -162.528 -6.00375 71.9897 -19.0205 -3.81815 -87.1725 -22.8607 -2.94871 14.4702 1.66064 80.7828 -1.54819 -4.45431 -4.9026 -178.244 -19.7308 0.9825 -0.88675 4.47035 -2.29061 0.0349254 90 2.60905e-016 -5.66536e-015 -5.67087 -4.61425 -174.33 -24.3112 -0.562771 -0.284416 5.9786 1.94563 -0.273863 90 7.95139e-016 8.34896e-015 
1.35744 89.1314 -1.37471 93.6702 -85.485 1.82906 1.051 0.876237 0.665702 2.09267 1.76476 1.29127 2.09267 1.76475 1.29124 -19.3469 -0.728003 -13.9025 46.2141 -0.452699 14.5351 -162.867 -4.56533 -96.966 -23.1814 5.34716 87.813 -26.9609 3.45194 -17.1346 10.2303 -86.3655 12.1708 -162.616 -6.09228 71.8809 -19.4252 -3.71187 -86.7868 -22.7848 -2.92687 14.4259 1.46323 79.9862 -1.35651 -5.37472 -5.32203 -178.705 -20.0942 0.977544 -0.872058 4.55156 -1.14538 0.0320729 90 1.31695e-014 1.49089e-015 -6.1695 -5.10586 -174.763 -24.5024 -0.560319 -0.27419 5.64848 2.96215 -0.219454 90 -8.94531e-015 -6.75868e-015 
1.28471 89.182 -0.972947 95.6584 -83.1406 4.0931 1.09823 0.959141 0.663929 2.18567 1.93124 1.31223 2.18566 1.93124 1.3122 -19.5791 -0.572424 -13.8297 46.1965 -0.312132 14.1126 -162.613 -4.43004 -96.98 -24.5981 5.18792 88.1768 -28.2345 3.70477 -17.7938 12.6385 -87.1234 14.5271 -162.344 -5.98118 71.9418 -19.4209 -3.3852 -86.5319 -22.4424 -2.84764 14.2381 1.42732 79.7376 -1.31541 -6.23193 -5.25916 -178.895 -20.0417 0.970487 -0.872249 5.3973 -0.455539 0.0748294 90 6.93262e-015 -1.51076e-014 -6.84531 -5.91852 -174.999 -24.8523 -0.552322 -0.256036 5.39248 4.63428 -0.14598 90 -6.4605e-015 5.56597e-015 
1.20417 89.171 -0.661442 95.4751 -80.4347 4.2679 1.16243 1.06719 0.644699 2.3134 2.14768 1.2681 2.31339 2.14767 1.26809 -19.7845 -0.495529 -13.4576 46.3654 -0.458475 13.4387 -162.363 -4.24521 -96.6826 -26.1689 4.97156 88.2464 -29.2437 3.89935 -18.3085 12.6751 -87.3904 14.5188 -162.083 -5.82815 72.3077 -20.4479 -3.33916 -86.185 -22.1386 -2.77819 14.0765 1.66521 80.6887 -1.54245 -6.56404 -4.52021 -178.951 -20.013 0.967808 -0.880802 7.14237 -0.268191 0.164634 90 -8.15017e-015 7.95139e-016 -7.35749 -6.51631 -175.302 -25.3951 -0.542429 -0.230361 5.61588 6.79809 -0.123307 90 2.66371e-014 7.95139e-016 
1.09185 89.2337 -0.261158 94.819 -77.0262 4.08686 1.2367 1.05579 0.612073 2.46275 2.12491 1.20168 2.46274 2.12492 1.20166 -20.06 -0.349794 -13.4504 46.5133 -0.107089 13.378 -162.062 -4.15953 -96.736 -27.0104 4.74114 88.3636 -30.1086 4.13437 -18.7606 11.0993 -86.6773 13.1176 -161.788 -5.77655 72.312 -20.9947 -3.37154 -86.0232 -22.3703 -2.83271 14.2057 1.81556 81.0248 -1.69167 -6.8631 -3.29445 -179.049 -20.2865 0.966924 -0.919246 7.24554 -3.30454 0.340756 90 -2.38542e-015 7.95139e-015 -7.81421 -7.43694 -175.779 -25.828 -0.534602 -0.203065 5.79672 9.04551 -0.108756 90 -1.39149e-015 -5.56597e-015 
0.937458 89.2877 -0.0148414 94.4071 -73.4709 3.93643 1.29543 1.06019 0.610837 2.58015 2.13434 1.19829 2.58014 2.13435 1.19827 -19.9564 -0.256563 -13.2429 46.2328 -0.0158505 12.9467 -162.129 -3.96047 -96.6154 -28.072 4.58885 88.3276 -30.8471 4.27693 -19.1297 10.4181 -86.8534 12.3697 -161.849 -5.59589 72.4969 -21.8643 -3.5798 -85.7524 -22.8253 -2.93883 14.4446 2.18894 82.0793 -2.0443 -7.23415 -2.09977 -178.917 -21.5105 0.966507 -0.927092 6.9699 -6.65385 0.488216 90 5.56597e-015 3.18055e-015 -7.7149 -8.79392 -176.097 -25.5541 -0.531554 -0.17262 5.62637 11.1794 -0.0320601 90 3.67752e-015 1.19271e-014 
0.820359 89.3542 0.322087 94.1653 -69.618 3.99969 1.29584 1.1259 0.62171 2.58013 2.266 1.21831 2.58014 2.26602 1.21829 -19.9707 -0.0970022 -13.4792 46.6061 0.337799 12.968 -162.098 -3.88743 -96.9248 -29.0513 4.63176 88.4099 -31.4258 4.38846 -19.4157 9.47044 -87.0766 11.4151 -161.836 -5.53503 72.253 -21.7619 -4.29282 -85.797 -23.948 -3.20632 15.0429 2.42842 83.0122 -2.30301 -7.74365 -1.44532 -178.667 -23.0252 0.965177 -0.893606 6.56877 -8.04726 0.49362 90 -5.56597e-015 3.18055e-015 -7.78638 -10.0987 -176.406 -25.3079 -0.527765 -0.137391 5.374 13.6994 0.0735574 90 2.98177e-015 -9.14409e-015 
0.719711 89.461 0.471028 93.1359 -65.6159 3.13768 1.34736 1.12489 0.652784 2.6826 2.26526 1.27945 2.6826 2.26525 1.27943 -19.656 -0.0473754 -13.4679 46.5674 0.6919 13.1206 -162.391 -3.77142 -96.9696 -29.3078 4.64993 88.3543 -31.6404 4.43641 -19.5204 8.99619 -87.0535 10.9477 -162.115 -5.43274 72.2251 -21.6823 -3.94592 -85.0089 -23.7047 -3.15455 14.9105 2.34952 82.3446 -2.19981 -7.75657 -0.503293 -177.995 -24.6348 0.961533 -0.833184 6.12905 -8.54057 0.43045 90 9.54166e-015 6.36111e-015 -7.3274 -11.3645 -176.466 -25.0372 -0.523289 -0.102086 5.481 16.169 0.0732667 90 1.31695e-014 2.38542e-014 
0.53364 89.5422 0.717482 93.0693 -61.8678 3.23281 1.30283 1.19418 0.627308 2.59336 2.40283 1.22785 2.59335 2.40282 1.22784 -19.643 -0.121229 -13.1287 47.1466 0.41673 12.7974 -162.391 -3.71569 -96.6572 -28.9611 5.00036 88.2141 -31.968 4.51351 -19.6677 8.82559 -86.9905 10.7274 -162.117 -5.35661 72.5863 -21.4617 -4.56805 -84.9599 -24.1067 -3.25496 15.1244 2.35845 82.2893 -2.21452 -7.68845 1.38238 -177.301 -25.6453 0.956624 -0.798106 6.28491 -9.5261 0.496215 90 1.59028e-015 9.54166e-015 -7.61606 -12.683 -176.806 -25.2511 -0.51951 -0.0770331 5.33231 18.1767 0.132431 90 1.1778e-014 4.17448e-015 
0.311169 89.5076 0.856528 92.4722 -58.3515 2.79083 1.26577 1.33253 0.601273 2.5185 2.67829 1.17359 2.5185 2.67829 1.17358 -19.2105 -0.115254 -12.9291 47.1951 0.573393 12.7369 -162.798 -3.5632 -96.5234 -28.112 5.63398 87.9619 -32.0389 4.53088 -19.6793 7.86837 -86.8471 9.72591 -162.523 -5.17969 72.7504 -20.7727 -4.92952 -84.883 -24.2305 -3.28408 15.1873 2.24219 82.3675 -2.11502 -7.40166 4.55288 -176.406 -26.6778 0.947808 -0.741918 5.87458 -10.8655 0.451569 90 1.59028e-014 1.27222e-014 -7.29798 -13.7275 -176.919 -25.3033 -0.517846 -0.0517238 5.1127 20.395 0.210275 90 2.52457e-014 1.41137e-014 
